<mxfile host="Electron" agent="Mozilla/5.0 (Windows NT 10.0; Win64; x64) AppleWebKit/537.36 (KHTML, like Gecko) draw.io/28.1.2 Chrome/138.0.7204.243 Electron/37.4.0 Safari/537.36" version="28.1.2">
  <diagram name="Page-1" id="hC5hiwrFHdxn1tXDyJLb">
    <mxGraphModel dx="969" dy="742" grid="1" gridSize="10" guides="1" tooltips="1" connect="1" arrows="1" fold="1" page="1" pageScale="1" pageWidth="850" pageHeight="1100" math="0" shadow="0">
      <root>
        <mxCell id="0" />
        <mxCell id="1" parent="0" />
        <mxCell id="nyuZSw6_zN-wiGSrYVvP-6" style="edgeStyle=orthogonalEdgeStyle;rounded=0;orthogonalLoop=1;jettySize=auto;html=1;exitX=0.5;exitY=1;exitDx=0;exitDy=0;entryX=0.5;entryY=0;entryDx=0;entryDy=0;" edge="1" parent="1" source="nyuZSw6_zN-wiGSrYVvP-1" target="nyuZSw6_zN-wiGSrYVvP-3">
          <mxGeometry relative="1" as="geometry" />
        </mxCell>
        <mxCell id="nyuZSw6_zN-wiGSrYVvP-1" value="reading the&lt;div&gt;question&lt;/div&gt;" style="rounded=0;whiteSpace=wrap;html=1;" vertex="1" parent="1">
          <mxGeometry x="280" y="180" width="120" height="60" as="geometry" />
        </mxCell>
        <mxCell id="nyuZSw6_zN-wiGSrYVvP-9" style="edgeStyle=orthogonalEdgeStyle;rounded=0;orthogonalLoop=1;jettySize=auto;html=1;exitX=1;exitY=0.5;exitDx=0;exitDy=0;entryX=0;entryY=0.5;entryDx=0;entryDy=0;" edge="1" parent="1" source="nyuZSw6_zN-wiGSrYVvP-2" target="nyuZSw6_zN-wiGSrYVvP-5">
          <mxGeometry relative="1" as="geometry" />
        </mxCell>
        <mxCell id="nyuZSw6_zN-wiGSrYVvP-2" value="still confused" style="rounded=0;whiteSpace=wrap;html=1;" vertex="1" parent="1">
          <mxGeometry x="350" y="440" width="120" height="60" as="geometry" />
        </mxCell>
        <mxCell id="nyuZSw6_zN-wiGSrYVvP-8" style="edgeStyle=orthogonalEdgeStyle;rounded=0;orthogonalLoop=1;jettySize=auto;html=1;exitX=0.25;exitY=1;exitDx=0;exitDy=0;entryX=0;entryY=0.5;entryDx=0;entryDy=0;" edge="1" parent="1" source="nyuZSw6_zN-wiGSrYVvP-3" target="nyuZSw6_zN-wiGSrYVvP-2">
          <mxGeometry relative="1" as="geometry" />
        </mxCell>
        <mxCell id="nyuZSw6_zN-wiGSrYVvP-3" value="rereading the&lt;div&gt;material for lab&lt;/div&gt;" style="rounded=0;whiteSpace=wrap;html=1;" vertex="1" parent="1">
          <mxGeometry x="280" y="320" width="120" height="60" as="geometry" />
        </mxCell>
        <mxCell id="nyuZSw6_zN-wiGSrYVvP-13" style="edgeStyle=orthogonalEdgeStyle;rounded=0;orthogonalLoop=1;jettySize=auto;html=1;exitX=0.25;exitY=1;exitDx=0;exitDy=0;entryX=0.5;entryY=0;entryDx=0;entryDy=0;" edge="1" parent="1" source="nyuZSw6_zN-wiGSrYVvP-5" target="nyuZSw6_zN-wiGSrYVvP-10">
          <mxGeometry relative="1" as="geometry" />
        </mxCell>
        <mxCell id="nyuZSw6_zN-wiGSrYVvP-16" style="edgeStyle=orthogonalEdgeStyle;rounded=0;orthogonalLoop=1;jettySize=auto;html=1;exitX=0.5;exitY=1;exitDx=0;exitDy=0;entryX=0.5;entryY=0;entryDx=0;entryDy=0;" edge="1" parent="1" source="nyuZSw6_zN-wiGSrYVvP-5" target="nyuZSw6_zN-wiGSrYVvP-14">
          <mxGeometry relative="1" as="geometry" />
        </mxCell>
        <mxCell id="nyuZSw6_zN-wiGSrYVvP-5" value="Went to websites, articles, asked AI." style="rounded=0;whiteSpace=wrap;html=1;" vertex="1" parent="1">
          <mxGeometry x="530" y="440" width="120" height="60" as="geometry" />
        </mxCell>
        <mxCell id="nyuZSw6_zN-wiGSrYVvP-7" style="edgeStyle=orthogonalEdgeStyle;rounded=0;orthogonalLoop=1;jettySize=auto;html=1;exitX=0.5;exitY=1;exitDx=0;exitDy=0;entryX=1;entryY=0.5;entryDx=0;entryDy=0;" edge="1" parent="1" source="nyuZSw6_zN-wiGSrYVvP-3" target="nyuZSw6_zN-wiGSrYVvP-3">
          <mxGeometry relative="1" as="geometry">
            <Array as="points">
              <mxPoint x="340" y="400" />
              <mxPoint x="460" y="400" />
              <mxPoint x="460" y="350" />
            </Array>
          </mxGeometry>
        </mxCell>
        <mxCell id="nyuZSw6_zN-wiGSrYVvP-17" style="edgeStyle=orthogonalEdgeStyle;rounded=0;orthogonalLoop=1;jettySize=auto;html=1;exitX=0.5;exitY=1;exitDx=0;exitDy=0;entryX=0.25;entryY=0;entryDx=0;entryDy=0;" edge="1" parent="1" source="nyuZSw6_zN-wiGSrYVvP-10" target="nyuZSw6_zN-wiGSrYVvP-12">
          <mxGeometry relative="1" as="geometry" />
        </mxCell>
        <mxCell id="nyuZSw6_zN-wiGSrYVvP-10" value="Simplified Code for lab" style="rounded=0;whiteSpace=wrap;html=1;" vertex="1" parent="1">
          <mxGeometry x="140" y="550" width="120" height="60" as="geometry" />
        </mxCell>
        <mxCell id="nyuZSw6_zN-wiGSrYVvP-18" style="edgeStyle=orthogonalEdgeStyle;rounded=0;orthogonalLoop=1;jettySize=auto;html=1;exitX=0;exitY=0.5;exitDx=0;exitDy=0;entryX=0.75;entryY=0;entryDx=0;entryDy=0;" edge="1" parent="1" source="nyuZSw6_zN-wiGSrYVvP-11" target="nyuZSw6_zN-wiGSrYVvP-12">
          <mxGeometry relative="1" as="geometry" />
        </mxCell>
        <mxCell id="nyuZSw6_zN-wiGSrYVvP-11" value="trying to understanding how heap and stack work" style="rounded=0;whiteSpace=wrap;html=1;" vertex="1" parent="1">
          <mxGeometry x="365" y="570" width="135" height="60" as="geometry" />
        </mxCell>
        <mxCell id="nyuZSw6_zN-wiGSrYVvP-22" style="edgeStyle=orthogonalEdgeStyle;rounded=0;orthogonalLoop=1;jettySize=auto;html=1;exitX=0.5;exitY=1;exitDx=0;exitDy=0;entryX=0.5;entryY=0;entryDx=0;entryDy=0;" edge="1" parent="1" source="nyuZSw6_zN-wiGSrYVvP-12" target="nyuZSw6_zN-wiGSrYVvP-21">
          <mxGeometry relative="1" as="geometry" />
        </mxCell>
        <mxCell id="nyuZSw6_zN-wiGSrYVvP-12" value="rewrote code for lab to make it understandable and more simpler" style="rounded=0;whiteSpace=wrap;html=1;" vertex="1" parent="1">
          <mxGeometry x="230" y="720" width="150" height="60" as="geometry" />
        </mxCell>
        <mxCell id="nyuZSw6_zN-wiGSrYVvP-15" style="edgeStyle=orthogonalEdgeStyle;rounded=0;orthogonalLoop=1;jettySize=auto;html=1;exitX=0.5;exitY=1;exitDx=0;exitDy=0;entryX=0.5;entryY=0;entryDx=0;entryDy=0;" edge="1" parent="1" source="nyuZSw6_zN-wiGSrYVvP-14" target="nyuZSw6_zN-wiGSrYVvP-11">
          <mxGeometry relative="1" as="geometry" />
        </mxCell>
        <mxCell id="nyuZSw6_zN-wiGSrYVvP-14" value="trying to figure out where obj fields and primitive datatypes go" style="rounded=0;whiteSpace=wrap;html=1;" vertex="1" parent="1">
          <mxGeometry x="590" y="550" width="130" height="60" as="geometry" />
        </mxCell>
        <mxCell id="nyuZSw6_zN-wiGSrYVvP-4" value="10x" style="rounded=0;whiteSpace=wrap;html=1;" vertex="1" parent="1">
          <mxGeometry x="440" y="360" width="40" height="30" as="geometry" />
        </mxCell>
        <mxCell id="nyuZSw6_zN-wiGSrYVvP-21" value="still confused but wanted to get the lab done :(" style="rounded=0;whiteSpace=wrap;html=1;" vertex="1" parent="1">
          <mxGeometry x="232.5" y="820" width="145" height="60" as="geometry" />
        </mxCell>
      </root>
    </mxGraphModel>
  </diagram>
</mxfile>
